<svg width="154" height="152" viewBox="0 0 154 152" fill="none" xmlns="http://www.w3.org/2000/svg">
<path d="M77 119.312C71.4411 119.317 65.9676 117.944 61.0689 115.317C56.1703 112.689 51.9992 108.888 48.9287 104.254L56.9463 98.9266C59.1411 102.236 62.121 104.951 65.6201 106.829C69.1192 108.708 73.0287 109.691 77 109.691C80.9713 109.691 84.8808 108.708 88.3799 106.829C91.879 104.951 94.8589 102.236 97.0537 98.9266L105.071 104.254C102.001 108.888 97.8297 112.689 92.9311 115.317C88.0324 117.944 82.5589 119.317 77 119.312ZM96.25 66.3749C94.3464 66.3749 92.4855 66.9394 90.9026 67.997C89.3198 69.0546 88.0862 70.5578 87.3577 72.3166C86.6292 74.0753 86.4386 76.0106 86.8099 77.8776C87.1813 79.7447 88.098 81.4597 89.4441 82.8058C90.7902 84.1519 92.5052 85.0686 94.3723 85.4399C96.2393 85.8113 98.1746 85.6207 99.9333 84.8922C101.692 84.1637 103.195 82.9301 104.253 81.3472C105.311 79.7644 105.875 77.9035 105.875 75.9999C105.888 74.7323 105.648 73.475 105.169 72.3014C104.689 71.1278 103.981 70.0616 103.085 69.1653C102.188 68.269 101.122 67.5605 99.9485 67.0813C98.7749 66.6022 97.5176 66.362 96.25 66.3749ZM57.75 66.3749C55.8464 66.3749 53.9855 66.9394 52.4026 67.997C50.8198 69.0546 49.5862 70.5578 48.8577 72.3166C48.1292 74.0753 47.9386 76.0106 48.3099 77.8776C48.6813 79.7447 49.598 81.4597 50.9441 82.8058C52.2902 84.1519 54.0052 85.0686 55.8723 85.4399C57.7393 85.8113 59.6746 85.6207 61.4333 84.8922C63.1921 84.1637 64.6953 82.9301 65.7529 81.3472C66.8105 79.7644 67.375 77.9035 67.375 75.9999C67.3879 74.7323 67.1477 73.475 66.6686 72.3014C66.1894 71.1278 65.4809 70.0616 64.5846 69.1653C63.6883 68.269 62.6221 67.5605 61.4485 67.0813C60.2749 66.6022 59.0176 66.362 57.75 66.3749Z" fill="white"/>
<path d="M144.375 76V66.375H134.75V47.125C134.744 42.0215 132.713 37.1289 129.105 33.5202C125.496 29.9115 120.603 27.8814 115.5 27.875H105.875V8.625H96.25V27.875H57.75V8.625H48.125V27.875H38.5C33.3965 27.8814 28.5039 29.9115 24.8952 33.5202C21.2865 37.1289 19.2564 42.0215 19.25 47.125V66.375H9.625V76H19.25V100.062H9.625V109.688H19.25V124.125C19.2564 129.228 21.2865 134.121 24.8952 137.73C28.5039 141.338 33.3965 143.369 38.5 143.375H115.5C120.603 143.369 125.496 141.338 129.105 137.73C132.713 134.121 134.744 129.228 134.75 124.125V109.688H144.375V100.062H134.75V76H144.375ZM125.125 124.125C125.122 126.677 124.108 129.124 122.303 130.928C120.499 132.733 118.052 133.747 115.5 133.75H38.5C35.9481 133.747 33.5014 132.733 31.6969 130.928C29.8924 129.124 28.8775 126.677 28.875 124.125V47.125C28.8775 44.5731 29.8924 42.1264 31.6969 40.3219C33.5014 38.5174 35.9481 37.5025 38.5 37.5H115.5C118.052 37.5025 120.499 38.5174 122.303 40.3219C124.108 42.1264 125.122 44.5731 125.125 47.125V124.125Z" fill="white"/>
</svg>
