<svg width="43" height="40" viewBox="0 0 43 40" fill="none" xmlns="http://www.w3.org/2000/svg">
<path d="M43 4.2V0.6L39.4001 0.2C39.2001 0.2 38 0 36 0C27.8 0 21.8 2.4 18.4 6.6C15.8 5 12.2 4 8.00005 4C6.00005 4 4.60005 4.2 4.60005 4.2L0.800049 4.8L1.00005 8.2C1.20005 14.2 4.20005 25.6 14.6 25.6H15V32.4C7.40005 33.4 1.00005 36 1.00005 36V40H41V36C41 36 34.6 33.4 27 32.4V26C39.6001 25.8 43 11.6 43 4.2ZM21 32H19V20.8C19 20.8 18.6 14 13 14C13 14 16 15.6 16.8 21.4C16 21.6 15.2 21.6 14.6 21.6C5.40005 21.6 5.00005 8.2 5.00005 8.2C5.00005 8.2 6.20005 8 8.00005 8C11.8 8 18 8.8 19.8 14.2C20.8 5.2 31 4 36 4C37.8 4 39 4.2 39 4.2C39 4.2 39 22.2 26.4 22.2H25C25 18.2 29 12.2 29 12.2C23 14.2 23 22 23 22V32H21Z" fill="#545454"/>
</svg>
